<?xml version="1.0"?>
<svg viewBox="0 0 620 180"  width="620" height="180" stroke="currentColor" fill="currentColor" xmlns="http://www.w3.org/2000/svg" xmlns:svg="http://www.w3.org/2000/svg" version="1.1">
 <defs id="defs6">
  <clipPath clipPathUnits="userSpaceOnUse" id="clipPath16">
   <path d="m0,793.33l595,0l0,-793.33l-595,0l0,793.33z" id="path14"/>
  </clipPath>
  <clipPath clipPathUnits="userSpaceOnUse" id="clipPath40">
   <path d="m0,793.33l595,0l0,-793.33l-595,0l0,793.33z" id="path38"/>
  </clipPath>
 </defs>
 <g class="layer">
  <g id="g8" transform="translate(-79, -438) matrix(1.33333, 0, 0, -1.33333, 0, 1057.78)">
   <g id="g10">
    <g clip-path="url(#clipPath16)" id="g12">
     <g id="g18" transform="translate(346.3542,353.1699)">
      <path d="m0,0c8.12,1.06 14.97,8.39 14.21,14.93c-7.81,3.29 -14.86,-8.44 -14.21,-14.93m86.59,15.91c-7.42,0.89 -17.43,-7.3 -18.04,-14.47c6.77,-0.75 16.18,6.68 18.04,14.47m-74.61,-18.23c-5.94,-2.48 -16.66,-9.62 -18.61,0.8c-1.37,7.37 4.64,15.36 10.04,19.36c3.62,2.69 12.01,7.49 16.55,3.66c5.05,-4.26 -1.02,-17.52 -1.67,-23.03c14.57,-0.12 23.66,20.39 29.99,30.47c-3.37,-0.7 -16.4,-5.48 -18.97,-1.44c-4.88,7.65 16.02,5.31 18.59,6.48c5.72,2.61 4.9,12.02 9.76,13.85c9.75,3.67 0.78,-10.93 -0.81,-13.39c3.73,-0.8 6.88,-1.48 10.04,-2.16c0.29,-4.62 -3.98,-2.9 -6.98,-3.11c-5.86,-0.4 -5.57,-0.5 -8.53,-5.51c-5.21,-8.83 -10.25,-18.79 -12.88,-28.67c4.9,-0.23 9.94,1.79 14.64,3.11c7.62,2.12 7.68,3.59 11.16,9.87c3.54,6.38 21.04,21.23 27.64,12.79c5.03,-6.42 -11.79,-24.3 0.33,-25.13c2.88,-0.2 10.44,3.13 12.89,4.73c2.06,1.33 1.9,3.3 4.54,4.59c2.01,0.98 5.03,0.71 7.15,0.72c-3.44,3 -11.26,7.51 -11.65,12.55c-0.44,5.57 6.93,8.46 11.12,9.97c3.17,1.14 12.53,2.92 8.61,-4.01c-1.68,-2.96 -10.28,-2.47 -13.64,-5.53c3.37,-3.97 14.78,-8.26 14.7,-13.8c-0.1,-7.84 -13.71,-6.23 -18.82,-5.37c-2.84,-3.89 -11.66,-10.57 -16.62,-10.43c-5.69,0.15 -7.57,5.51 -9.06,10.25c-6.45,-2.5 -12.46,-9.09 -19.86,-2.11c-5.3,-2.06 -35.66,-16.58 -27.6,2.87c-6.73,-4.26 -17.98,-14.77 -22.05,-2.38" fill-rule="nonzero" id="path20"/>
     </g>
     <g id="g22" transform="translate(96.4499,434.3983)">
      <path d="m0,0c-6.88,-1.86 -12.86,-3.93 -19.23,-7.24c-2.24,-1.17 -4.25,-2.55 -6.11,-3.98c-1.15,-0.87 -1.04,-3.41 -2.81,-3.91c-7.16,-2.06 -5.28,6.55 -2.12,9.29c4.03,3.5 10.64,5.35 15.5,7.3c25.91,10.39 54.81,17.53 82.45,21.14c5.26,0.68 14.51,1.74 19.97,1.16c3.75,-0.4 4.95,-2.92 0.81,-3.89c-0.25,-0.06 -7.33,-0.87 -8.22,-0.97c-2.63,-0.29 -5.81,-0.66 -8.44,-1.06c-7.52,-1.16 -14.12,-1.73 -21.58,-3.27c-6.37,-1.32 -12.87,-2.98 -19.12,-4.72c-5.48,-1.52 -15.28,-2.91 -20.49,-5.39c-4.86,-2.31 -4.64,-10.29 -5.41,-15.16c-1.17,-7.37 -2.21,-13.57 -1.93,-21.04c7.19,0.54 38.21,7.93 41.08,-1.32c-12.13,-2.76 -26.04,0.33 -38.01,-3.88c-8.99,-3.15 -8.26,-22.8 -9.07,-31.51c-0.38,-4 2.35,-14.61 -0.13,-17.7c-3.3,-4.11 -7.41,-2.05 -8.33,2.28c-1.29,6.12 2.19,16.12 3.07,22.36c0.93,6.62 4.04,16.13 2.65,22.62c-4.19,-0.59 -16.56,-6.94 -20.05,-4.91c-9.33,5.45 7.59,8.4 10.46,8.96c9.48,1.87 11.2,2.5 12.67,12.41c0.96,6.48 4.87,23.51 2.39,22.43" fill-rule="nonzero" id="path24"/>
     </g>
     <g id="g26" transform="translate(272.5006,357.6845)">
      <path d="m0,0c2.67,-11.23 15.27,1.98 15.43,8.88c0.11,4.67 -2.97,6.3 -7.02,3.98c-4.01,-2.29 -6.2,-8.99 -8.41,-12.86m15.58,-3.69c-4.43,-4 -13.01,-12.11 -19.24,-6.13c-6.44,6.19 1.81,21.38 6.49,26.11c5.87,5.95 11.51,4.66 17.87,0.18c9.25,-6.51 -2.21,-9.04 1.88,-17.04c11.96,0.29 12.83,15.34 21.22,20.41c2.2,-4.91 0.9,-8.69 0.02,-13.94c3.69,4.33 27.34,30.44 33.42,19.62c-13.79,-5.14 -24.8,-14.95 -31.83,-27.93c-1.52,-2.8 -2.35,-8.85 -5.71,-9.29c-7.38,-0.97 -4.02,9.08 -3.21,12.13c-6.7,-4.76 -13.49,-11.77 -20.91,-4.12" fill-rule="nonzero" id="path28"/>
     </g>
     <g id="g30" transform="translate(179.2465,387.1092)">
      <path d="m0,0c-4.95,-10.58 -0.73,-4.35 2.08,-0.74c3.38,4.51 9.19,14.06 10.82,16.75c4.53,8.36 2.63,9.77 -2.4,2.06c-3.86,-5.43 -6.76,-9.89 -10.5,-18.07m36.97,-14.39c0.51,1.13 1.67,4.27 -1.23,3.06c-6.78,-2.94 -15.88,-11.69 -16.03,-19.2c8.87,0.67 14,8.63 17.26,16.14m-87.01,-18.49c8.37,5.69 15.05,10.52 16.47,20.9c-13.14,-1.98 -21.1,-11.93 -16.47,-20.9m63.72,-2.47c-3.32,10.71 9.31,25.22 18.58,29.38c6.44,2.89 11.66,-1.01 11.41,-6.85c-0.38,-8.7 -2.08,-10 -7.25,-16.53c-0.04,-0.14 -0.7,-1 -0.5,-1.21c0.24,-0.24 1.16,0.08 1.37,0.09c6.29,1.96 17.14,3.47 21.69,8.14c6.77,6.94 9.24,21.07 11.12,30.13c0.59,2.89 2.72,23.88 8.49,13.5c2.05,-3.7 -2.21,-12.65 -3.26,-16.13c-1.98,-6.53 -4.01,-13.04 -6.01,-19.56c6.37,1.33 12.71,2.76 16.31,-4.26c3.94,-7.68 -2.18,-12.89 -8.27,-16.3c-5.8,-3.26 -12.22,-5.14 -18.54,-7.09c-6.84,-2.1 -11.57,-6 -11.49,2.86c0.01,0.62 0.6,0.84 1.06,0.91c8.63,2.14 17.68,3.53 25.61,7.78c4.27,2.28 12.72,10.53 2.45,11.98c-7.19,1.02 -10.16,-8.25 -14.21,-11.94c-3.93,-3.58 -4.07,-1.19 -11.51,-1.28c-2.81,-0.03 -5.75,-2.58 -8.37,-3.46c-4.97,-1.67 -7.06,-0.14 -11.58,-0.24c-6.58,-0.14 -13.7,-4.45 -19.91,-7.1c-5.53,-2.36 -13.12,-7 -19.05,-3.21c-5.74,3.67 -5.43,11.91 -5.67,17.8c-7.35,-4.84 -16.77,-14.14 -21.96,-2.3c-5.04,-3.8 -13.58,-13.47 -19.98,-6.53c-5.68,6.15 -0.52,18.4 4.35,23.33c4.32,4.37 16.36,10.78 22.33,7.45c8.29,-4.61 1.8,-16.71 0.97,-23.11c6.5,3.25 13.3,6.17 17.4,12.5c4.92,7.59 5.94,17.63 10.16,25.71c3.32,6.34 8.96,16.6 15.15,20.21c8.24,4.79 8.15,-3.33 5.97,-9.14c-5.68,-15.13 -21.8,-26.32 -26.14,-41.78c-1.14,-4.04 -4.2,-14.56 -0.69,-17.9c5.05,-4.81 15.25,2.08 19.97,4.15" fill-rule="nonzero" id="path32"/>
     </g>
    </g>
   </g>
   <g id="g34">
    <g clip-path="url(#clipPath40)" id="g36">
     <g id="g42" transform="translate(510.0605,413.1763)">
      <path d="m0,0c0.58,3.33 1.13,5.76 0.5,9.22c-0.19,0.57 0.45,1.52 1.48,1.29c1.69,-0.38 3.4,-0.75 5.05,-1.26c1.64,-0.51 3.15,-3.51 2.83,-5.24c-0.46,-2.52 -0.94,-5.04 -1.29,-7.58c-0.75,-5.47 -2.61,-10.69 -3.72,-16.07c-1.55,-7.49 -4.54,-14.53 -6.7,-21.83c-1.14,-3.81 -2.06,-8.02 -5.15,-11.1c-2.29,-2.28 -3.73,-2.29 -5.93,-0.01c-1.06,1.1 -0.71,2.23 -0.32,3.31c2.41,6.67 5.26,13.2 6.89,20.11c1.56,6.64 3.32,13.24 4.07,20.07c0.31,2.79 1.51,5.25 2.11,8.16c0.06,0.31 0.13,0.81 0.18,0.93" fill-rule="nonzero" id="path44"/>
     </g>
     <g id="g46" transform="translate(500.6707,341.087)">
      <path d="m0,0c-0.04,-0.4 -0.11,-0.8 -0.11,-1.19c-0.04,-1.9 -0.57,-4.53 -1.93,-4.78c-2.1,-0.4 -4.55,0.35 -6.53,1.92c-1.42,1.12 -2.74,2.46 -3.49,3.91c-0.57,1.11 -1.31,2.79 -0.01,4.52c1.26,1.67 2.91,2.85 4.3,4.33c0.86,0.92 2.01,0.4 2.73,-0.38c0.94,-1.03 2.08,-1.53 3.34,-1.99c1.57,-0.57 1.89,-2 1.91,-3.46c0.01,-0.96 -0.1,-1.65 -0.2,-2.6c0.01,-0.05 -0.01,-0.21 -0.01,-0.28" fill-rule="nonzero" id="path48"/>
     </g>
    </g>
   </g>
  </g>
 </g>
</svg>